<svg id="Capa_1" data-name="Capa 1" xmlns="http://www.w3.org/2000/svg" viewBox="0 0 450 464.72"><defs><style>.cls-1{fill:#70e6f1;}</style></defs><title>brand</title><g id="Cool"><path class="cls-1" d="M475.15,266.68c1.12,31.25-5.39,61.21-17.28,89.92-9.13,22.06-30,29.88-49.27,19.45-15.2-8.23-21.55-26.36-14.75-44,3.22-8.38,5.56-16.66,5.26-25.74-.65-19.72-13.52-36.38-32.24-41.26-19.59-5.11-40.07,2.52-50.15,18.9-2.78,4.51-5,9.36-7.54,14-16.61,30.5-51.73,42.11-84,27.79-30.38-13.47-44.89-48.64-33.44-81,11.15-31.52,44-48.86,76.87-39.86,14.56,4,28.62,7.75,43.33.64,17-8.22,26.19-21.57,26.32-40.24s-8.75-33.38-25.73-40.6c-16-6.8-27-16.35-33.47-32.88-5.64-14.34-23.13-16.34-36.83-5.58-11.41,9-23.42,14.34-38.27,10.13C186.29,91.3,175,76.86,174.39,58c-.55-16.42,11.1-33,27-38.26a39.73,39.73,0,0,1,45.2,14.62,82.67,82.67,0,0,1,5.87,10.07c8,15.28,23.24,23.5,37.94,15.46,23.26-12.73,42.7-4.19,62,6.46,70.85,39,112.1,98.75,122.66,179.17C475.94,252.43,475.15,259.61,475.15,266.68Z" transform="translate(-25.47 -17.59)"/><path d="M25.88,267.18C24.26,237,30.8,208.18,42,180.29c8.37-20.88,26.39-29.65,45.8-22.14,20.85,8.06,28.86,26.84,20.6,48.27-24.72,64.1-11.13,127.82,37.45,174.42a150.94,150.94,0,0,0,47.06,30.25c12.43,5.19,23.23,12.06,26.46,26.66,3.17,14.26-1.54,25.88-11.63,35.48-9.92,9.42-21.95,11.34-34.53,6.57a231.87,231.87,0,0,1-66.77-38.64c-46.5-38.81-71.85-89.24-80.38-148.56C24.85,284.29,25.88,275.66,25.88,267.18Z" transform="translate(-25.47 -17.59)"/></g></svg>